<!--?xml version="1.0" standalone="no"?-->
              <svg id="sw-js-blob-svg" viewBox="0 0 100 100" xmlns="http://www.w3.org/2000/svg" version="1.1">
                    <defs> 
                        <linearGradient id="sw-gradient" x1="0" x2="1" y1="1" y2="0">
                            <stop id="stop1" stop-color="rgba(92, 166, 219, 1)" offset="0%"></stop>
                            <stop id="stop2" stop-color="rgba(121, 216, 90, 1)" offset="100%"></stop>
                        </linearGradient>
                    </defs>
                <path fill="url(#sw-gradient)" d="M13.4,-23.6C18.6,-20.2,25,-19.2,29.7,-15.6C34.4,-12.1,37.4,-6,36,-0.8C34.6,4.4,28.8,8.8,24.7,13.3C20.5,17.9,18.1,22.4,14.2,27.3C10.4,32.1,5.2,37.1,0.7,36C-3.9,34.9,-7.8,27.6,-14.2,24.2C-20.5,20.8,-29.3,21.4,-32.5,18.1C-35.6,14.7,-33.1,7.3,-32.6,0.2C-32.2,-6.8,-33.9,-13.7,-31.4,-18.1C-28.9,-22.6,-22.1,-24.6,-16.2,-27.6C-10.3,-30.6,-5.1,-34.5,-0.5,-33.6C4.1,-32.7,8.2,-27,13.4,-23.6Z" width="100%" height="100%" transform="translate(50 50)" stroke-width="0" style="transition: all 0.3s ease 0s;" stroke="url(#sw-gradient)"></path>
              </svg>