<svg data-v-fde0c5aa="" xmlns="http://www.w3.org/2000/svg" viewBox="0 0 300 300" class="iconLeftSlogan"><!----><defs data-v-fde0c5aa=""><!----></defs><rect data-v-fde0c5aa="" fill="transparent" x="0" y="0" width="300px" height="300px" class="logo-background-square"></rect><defs data-v-fde0c5aa=""><!----></defs><g data-v-fde0c5aa="" id="9f5d2ee2-8919-405a-b2c6-b8445a50bb59" fill="#000000" transform="matrix(2.1054220373189745,0,0,2.1054220373189745,143.0648549039763,122.46183509173562)"><path d="M7.13 13.51L6.19 10.86L2.44 10.86L1.50 13.51L0.10 13.51L3.61 3.71L5.01 3.71L8.53 13.51L7.13 13.51ZM2.86 9.66L5.77 9.66L4.31 5.57L2.86 9.66ZM11.24 13.65L11.24 13.65Q10.32 13.65 9.89 13.17L9.89 13.17L9.89 13.17Q9.46 12.70 9.46 12.00L9.46 12.00L9.46 3.01L10.72 3.01L10.72 11.27L10.72 11.27Q10.72 11.89 10.80 12.17L10.80 12.17L10.80 12.17Q10.88 12.45 11.10 12.54L11.10 12.54L11.10 12.54Q11.33 12.64 11.83 12.64L11.83 12.64L11.65 13.65L11.24 13.65ZM16.07 13.65L16.07 13.65Q14.90 13.65 14.06 13.17L14.06 13.17L14.06 13.17Q13.23 12.68 12.80 11.86L12.80 11.86L12.80 11.86Q12.36 11.03 12.36 10.02L12.36 10.02L12.36 10.02Q12.36 9.06 12.76 8.25L12.76 8.25L12.76 8.25Q13.16 7.45 13.92 6.98L13.92 6.98L13.92 6.98Q14.69 6.51 15.72 6.51L15.72 6.51L15.72 6.51Q17.04 6.51 17.86 7.28L17.86 7.28L17.86 7.28Q18.68 8.05 18.68 9.41L18.68 9.41L18.68 9.41Q18.68 9.76 18.62 10.08L18.62 10.08L13.65 10.08L13.65 10.08Q13.78 11.41 14.46 11.97L14.46 11.97L14.46 11.97Q15.15 12.53 16.23 12.53L16.23 12.53L16.23 12.53Q17.30 12.53 18.20 12.12L18.20 12.12L18.37 13.12L18.37 13.12Q17.18 13.65 16.07 13.65L16.07 13.65ZM13.76 9.21L17.37 9.21L17.37 9.21Q17.37 8.47 16.95 8.05L16.95 8.05L16.95 8.05Q16.53 7.63 15.69 7.63L15.69 7.63L15.69 7.63Q14.88 7.63 14.42 8.03L14.42 8.03L14.42 8.03Q13.96 8.43 13.76 9.21L13.76 9.21ZM19.25 13.51L21.64 10.09L19.31 6.65L20.72 6.65L22.44 9.37L24.02 6.65L25.49 6.65L23.24 9.98L25.58 13.51L24.16 13.51L22.43 10.81L20.66 13.51L19.25 13.51ZM31.95 13.51L31.95 4.91L29.09 4.91L29.09 3.71L36.13 3.71L36.13 4.91L33.28 4.91L33.28 13.51L31.95 13.51ZM40.19 13.65L40.19 13.65Q39.14 13.65 38.37 13.18L38.37 13.18L38.37 13.18Q37.60 12.71 37.20 11.90L37.20 11.90L37.20 11.90Q36.79 11.09 36.79 10.08L36.79 10.08L36.79 10.08Q36.79 9.07 37.20 8.26L37.20 8.26L37.20 8.26Q37.60 7.45 38.37 6.98L38.37 6.98L38.37 6.98Q39.14 6.51 40.19 6.51L40.19 6.51L40.19 6.51Q41.23 6.51 42.01 6.98L42.01 6.98L42.01 6.98Q42.78 7.45 43.19 8.26L43.19 8.26L43.19 8.26Q43.60 9.07 43.60 10.08L43.60 10.08L43.60 10.08Q43.60 11.09 43.19 11.90L43.19 11.90L43.19 11.90Q42.78 12.71 42.01 13.18L42.01 13.18L42.01 13.18Q41.23 13.65 40.19 13.65L40.19 13.65ZM40.19 12.53L40.19 12.53Q41.20 12.53 41.75 11.89L41.75 11.89L41.75 11.89Q42.31 11.24 42.31 10.08L42.31 10.08L42.31 10.08Q42.31 8.92 41.75 8.27L41.75 8.27L41.75 8.27Q41.20 7.63 40.19 7.63L40.19 7.63L40.19 7.63Q39.19 7.63 38.63 8.27L38.63 8.27L38.63 8.27Q38.08 8.92 38.08 10.08L38.08 10.08L38.08 10.08Q38.08 11.24 38.63 11.89L38.63 11.89L38.63 11.89Q39.19 12.53 40.19 12.53L40.19 12.53ZM52.91 6.51L52.91 6.51Q55.54 6.51 55.54 9.46L55.54 9.46L55.54 13.51L54.28 13.51L54.28 9.48L54.28 9.48Q54.28 8.51 53.90 8.07L53.90 8.07L53.90 8.07Q53.52 7.63 52.67 7.63L52.67 7.63L52.67 7.63Q50.85 7.63 50.85 9.53L50.85 9.53L50.85 13.51L49.59 13.51L49.59 9.73L49.59 9.73Q49.59 8.55 49.17 8.09L49.17 8.09L49.17 8.09Q48.76 7.63 47.98 7.63L47.98 7.63L47.98 7.63Q47.36 7.63 46.89 7.85L46.89 7.85L46.89 7.85Q46.41 8.08 46.16 8.53L46.16 8.53L46.16 13.51L44.90 13.51L44.90 6.65L45.88 6.65L46.02 7.38L46.02 7.38Q46.54 6.92 47.06 6.71L47.06 6.71L47.06 6.71Q47.59 6.51 48.19 6.51L48.19 6.51L48.19 6.51Q49.76 6.51 50.40 7.88L50.40 7.88L50.40 7.88Q51.11 6.51 52.91 6.51L52.91 6.51Z"></path></g><defs data-v-fde0c5aa=""><linearGradient data-v-fde0c5aa="" gradientTransform="rotate(25)" id="64a279d6-ad2f-4055-9132-e1b189038830" x1="0%" y1="0%" x2="100%" y2="0%"><stop data-v-fde0c5aa="" offset="0%" stop-color="#08C7D6" stop-opacity="1"></stop><stop data-v-fde0c5aa="" offset="100%" stop-color="#02023E" stop-opacity="1"></stop></linearGradient></defs><g data-v-fde0c5aa="" id="40f08f08-029b-4e6d-a5ce-2d7dc4fe857c" stroke="none" fill="url(#64a279d6-ad2f-4055-9132-e1b189038830)" transform="matrix(0.9403684209695709,0,0,0.9403684209695709,40.000005719071666,104.86028722007323)"><path d="M28.416 76.572a4.01 4.01 0 0 1-2.832-1.172L1.172 50.844A4.02 4.02 0 0 1 0 48a4.03 4.03 0 0 1 1.176-2.848l24.412-24.548a3.978 3.978 0 0 1 5.656.004 4.048 4.048 0 0 1-.004 5.696L9.664 48l21.58 21.704a4.042 4.042 0 0 1 0 5.688 3.978 3.978 0 0 1-2.828 1.18zM67.588 76.572a3.963 3.963 0 0 1-2.828-1.18 4.038 4.038 0 0 1 0-5.697L86.344 48 64.76 26.304a4.037 4.037 0 0 1 0-5.696 3.978 3.978 0 0 1 5.656-.008l24.412 24.552A4.015 4.015 0 0 1 96 48c0 1.068-.42 2.088-1.172 2.844L70.416 75.393a3.96 3.96 0 0 1-2.828 1.179zM38.348 78a4.03 4.03 0 0 1-1.436-.264 4.045 4.045 0 0 1-2.296-5.213l19.868-51.947a3.992 3.992 0 0 1 5.168-2.304c2.06.796 3.088 3.124 2.296 5.204L42.072 75.424A3.983 3.983 0 0 1 38.348 78z"></path></g><defs data-v-fde0c5aa=""><!----></defs><g data-v-fde0c5aa="" id="01361b64-3b6b-4855-8df7-3bbcb0f66b3c" fill="#000000" transform="matrix(0.933199618645371,0,0,0.933199618645371,142.23021353351288,158.39191375279023)"><path d="M1.12 13.51L1.12 3.71L7.10 3.71L7.10 4.91L2.45 4.91L2.45 7.78L6.03 7.78L6.03 8.99L2.45 8.99L2.45 13.51L1.12 13.51ZM8.18 13.51L8.18 6.65L9.21 6.65L9.37 7.78L9.37 7.78Q9.90 7.13 10.38 6.82L10.38 6.82L10.38 6.82Q10.86 6.51 11.40 6.51L11.40 6.51L11.40 6.51Q11.56 6.51 11.72 6.55L11.72 6.55L11.59 7.94L11.59 7.94Q11.41 7.90 11.17 7.90L11.17 7.90L11.17 7.90Q10.65 7.90 10.19 8.13L10.19 8.13L10.19 8.13Q9.73 8.36 9.52 8.67L9.52 8.67L9.52 13.51L8.18 13.51ZM15.60 13.65L15.60 13.65Q14.55 13.65 13.78 13.18L13.78 13.18L13.78 13.18Q13.01 12.71 12.60 11.90L12.60 11.90L12.60 11.90Q12.19 11.09 12.19 10.08L12.19 10.08L12.19 10.08Q12.19 9.07 12.60 8.26L12.60 8.26L12.60 8.26Q13.01 7.45 13.78 6.98L13.78 6.98L13.78 6.98Q14.55 6.51 15.60 6.51L15.60 6.51L15.60 6.51Q16.63 6.51 17.41 6.98L17.41 6.98L17.41 6.98Q18.19 7.45 18.59 8.26L18.59 8.26L18.59 8.26Q19.00 9.07 19.00 10.08L19.00 10.08L19.00 10.08Q19.00 11.09 18.59 11.90L18.59 11.90L18.59 11.90Q18.19 12.71 17.41 13.18L17.41 13.18L17.41 13.18Q16.63 13.65 15.60 13.65L15.60 13.65ZM15.60 12.53L15.60 12.53Q16.60 12.53 17.16 11.89L17.16 11.89L17.16 11.89Q17.71 11.24 17.71 10.08L17.71 10.08L17.71 10.08Q17.71 8.92 17.16 8.27L17.16 8.27L17.16 8.27Q16.60 7.63 15.60 7.63L15.60 7.63L15.60 7.63Q14.59 7.63 14.04 8.27L14.04 8.27L14.04 8.27Q13.48 8.92 13.48 10.08L13.48 10.08L13.48 10.08Q13.48 11.24 14.04 11.89L14.04 11.89L14.04 11.89Q14.59 12.53 15.60 12.53L15.60 12.53ZM23.69 6.51L23.69 6.51Q26.49 6.51 26.49 9.73L26.49 9.73L26.49 13.51L25.23 13.51L25.23 9.73L25.23 9.73Q25.23 8.62 24.82 8.13L24.82 8.13L24.82 8.13Q24.40 7.63 23.44 7.63L23.44 7.63L23.44 7.63Q22.82 7.63 22.32 7.85L22.32 7.85L22.32 7.85Q21.81 8.08 21.56 8.53L21.56 8.53L21.56 13.51L20.30 13.51L20.30 6.65L21.28 6.65L21.42 7.38L21.42 7.38Q21.97 6.89 22.52 6.70L22.52 6.70L22.52 6.70Q23.07 6.51 23.69 6.51L23.69 6.51ZM30.49 13.65L30.49 13.65Q29.58 13.65 29.14 13.17L29.14 13.17L29.14 13.17Q28.70 12.70 28.70 12.01L28.70 12.01L28.70 7.63L27.52 7.63L27.64 6.65L28.70 6.65L28.70 4.96L29.96 4.83L29.96 6.65L31.77 6.65L31.77 7.63L29.96 7.63L29.96 11.24L29.96 11.24Q29.96 11.96 30.04 12.22L30.04 12.22L30.04 12.22Q30.13 12.49 30.40 12.56L30.40 12.56L30.40 12.56Q30.67 12.64 31.40 12.64L31.40 12.64L31.72 12.64L31.63 13.65L30.49 13.65ZM32.79 9.76L32.79 8.55L37.13 8.55L37.13 9.76L32.79 9.76ZM39.05 13.51L39.05 3.71L45.02 3.71L45.02 4.91L40.38 4.91L40.38 7.78L44.07 7.78L44.07 8.99L40.38 8.99L40.38 12.31L45.15 12.31L45.15 13.51L39.05 13.51ZM49.92 6.51L49.92 6.51Q52.72 6.51 52.72 9.73L52.72 9.73L52.72 13.51L51.46 13.51L51.46 9.73L51.46 9.73Q51.46 8.62 51.05 8.13L51.05 8.13L51.05 8.13Q50.64 7.63 49.67 7.63L49.67 7.63L49.67 7.63Q49.06 7.63 48.55 7.85L48.55 7.85L48.55 7.85Q48.05 8.08 47.80 8.53L47.80 8.53L47.80 13.51L46.54 13.51L46.54 6.65L47.52 6.65L47.66 7.38L47.66 7.38Q48.20 6.89 48.76 6.70L48.76 6.70L48.76 6.70Q49.31 6.51 49.92 6.51L49.92 6.51ZM59.18 3.01L60.44 3.01L60.44 13.51L59.32 13.51L59.18 12.67L59.18 12.67Q58.83 13.15 58.27 13.40L58.27 13.40L58.27 13.40Q57.71 13.65 57.08 13.65L57.08 13.65L57.08 13.65Q56.21 13.65 55.50 13.17L55.50 13.17L55.50 13.17Q54.78 12.70 54.37 11.89L54.37 11.89L54.37 11.89Q53.96 11.07 53.96 10.09L53.96 10.09L53.96 10.09Q53.96 9.14 54.34 8.32L54.34 8.32L54.34 8.32Q54.73 7.49 55.44 7L55.44 7L55.44 7Q56.15 6.51 57.08 6.51L57.08 6.51L57.08 6.51Q57.69 6.51 58.24 6.73L58.24 6.73L58.24 6.73Q58.79 6.96 59.18 7.42L59.18 7.42L59.18 3.01ZM57.30 12.53L57.30 12.53Q57.81 12.53 58.27 12.27L58.27 12.27L58.27 12.27Q58.73 12.01 59.02 11.47L59.02 11.47L59.02 11.47Q59.32 10.92 59.32 10.09L59.32 10.09L59.32 10.09Q59.32 9.32 59.02 8.76L59.02 8.76L59.02 8.76Q58.73 8.20 58.26 7.92L58.26 7.92L58.26 7.92Q57.79 7.63 57.30 7.63L57.30 7.63L57.30 7.63Q56.35 7.63 55.80 8.32L55.80 8.32L55.80 8.32Q55.24 9.02 55.24 10.09L55.24 10.09L55.24 10.09Q55.24 11.13 55.80 11.83L55.80 11.83L55.80 11.83Q56.36 12.53 57.30 12.53L57.30 12.53ZM65.55 13.51L65.55 3.71L69.17 3.71L69.17 3.71Q70.60 3.71 71.71 4.29L71.71 4.29L71.71 4.29Q72.81 4.87 73.43 5.98L73.43 5.98L73.43 5.98Q74.05 7.10 74.05 8.61L74.05 8.61L74.05 8.61Q74.05 10.12 73.43 11.23L73.43 11.23L73.43 11.23Q72.81 12.35 71.71 12.93L71.71 12.93L71.71 12.93Q70.60 13.51 69.17 13.51L69.17 13.51L65.55 13.51ZM66.88 12.31L69.17 12.31L69.17 12.31Q70.81 12.31 71.70 11.30L71.70 11.30L71.70 11.30Q72.59 10.30 72.59 8.61L72.59 8.61L72.59 8.61Q72.59 6.92 71.70 5.92L71.70 5.92L71.70 5.92Q70.81 4.91 69.17 4.91L69.17 4.91L66.88 4.91L66.88 12.31ZM78.75 13.65L78.75 13.65Q77.57 13.65 76.74 13.17L76.74 13.17L76.74 13.17Q75.91 12.68 75.47 11.86L75.47 11.86L75.47 11.86Q75.04 11.03 75.04 10.02L75.04 10.02L75.04 10.02Q75.04 9.06 75.44 8.25L75.44 8.25L75.44 8.25Q75.84 7.45 76.60 6.98L76.60 6.98L76.60 6.98Q77.36 6.51 78.40 6.51L78.40 6.51L78.40 6.51Q79.72 6.51 80.54 7.28L80.54 7.28L80.54 7.28Q81.35 8.05 81.35 9.41L81.35 9.41L81.35 9.41Q81.35 9.76 81.30 10.08L81.30 10.08L76.33 10.08L76.33 10.08Q76.45 11.41 77.14 11.97L77.14 11.97L77.14 11.97Q77.83 12.53 78.90 12.53L78.90 12.53L78.90 12.53Q79.98 12.53 80.88 12.12L80.88 12.12L81.05 13.12L81.05 13.12Q79.86 13.65 78.75 13.65L78.75 13.65ZM76.44 9.21L80.05 9.21L80.05 9.21Q80.05 8.47 79.63 8.05L79.63 8.05L79.63 8.05Q79.21 7.63 78.37 7.63L78.37 7.63L78.37 7.63Q77.56 7.63 77.10 8.03L77.10 8.03L77.10 8.03Q76.64 8.43 76.44 9.21L76.44 9.21ZM84.52 13.51L81.90 6.65L83.30 6.65L85.22 12.12L87.12 6.65L88.54 6.65L85.93 13.51L84.52 13.51ZM92.81 13.65L92.81 13.65Q91.63 13.65 90.80 13.17L90.80 13.17L90.80 13.17Q89.96 12.68 89.53 11.86L89.53 11.86L89.53 11.86Q89.10 11.03 89.10 10.02L89.10 10.02L89.10 10.02Q89.10 9.06 89.50 8.25L89.50 8.25L89.50 8.25Q89.89 7.45 90.66 6.98L90.66 6.98L90.66 6.98Q91.42 6.51 92.46 6.51L92.46 6.51L92.46 6.51Q93.77 6.51 94.59 7.28L94.59 7.28L94.59 7.28Q95.41 8.05 95.41 9.41L95.41 9.41L95.41 9.41Q95.41 9.76 95.35 10.08L95.35 10.08L90.38 10.08L90.38 10.08Q90.51 11.41 91.20 11.97L91.20 11.97L91.20 11.97Q91.88 12.53 92.96 12.53L92.96 12.53L92.96 12.53Q94.04 12.53 94.93 12.12L94.93 12.12L95.10 13.12L95.10 13.12Q93.91 13.65 92.81 13.65L92.81 13.65ZM90.50 9.21L94.11 9.21L94.11 9.21Q94.11 8.47 93.69 8.05L93.69 8.05L93.69 8.05Q93.27 7.63 92.43 7.63L92.43 7.63L92.43 7.63Q91.62 7.63 91.15 8.03L91.15 8.03L91.15 8.03Q90.69 8.43 90.50 9.21L90.50 9.21ZM98.45 13.65L98.45 13.65Q97.52 13.65 97.10 13.17L97.10 13.17L97.10 13.17Q96.67 12.70 96.67 12.00L96.67 12.00L96.67 3.01L97.93 3.01L97.93 11.27L97.93 11.27Q97.93 11.89 98.01 12.17L98.01 12.17L98.01 12.17Q98.08 12.45 98.31 12.54L98.31 12.54L98.31 12.54Q98.53 12.64 99.04 12.64L99.04 12.64L98.85 13.65L98.45 13.65ZM102.98 13.65L102.98 13.65Q101.93 13.65 101.16 13.18L101.16 13.18L101.16 13.18Q100.39 12.71 99.99 11.90L99.99 11.90L99.99 11.90Q99.58 11.09 99.58 10.08L99.58 10.08L99.58 10.08Q99.58 9.07 99.99 8.26L99.99 8.26L99.99 8.26Q100.39 7.45 101.16 6.98L101.16 6.98L101.16 6.98Q101.93 6.51 102.98 6.51L102.98 6.51L102.98 6.51Q104.02 6.51 104.80 6.98L104.80 6.98L104.80 6.98Q105.57 7.45 105.98 8.26L105.98 8.26L105.98 8.26Q106.39 9.07 106.39 10.08L106.39 10.08L106.39 10.08Q106.39 11.09 105.98 11.90L105.98 11.90L105.98 11.90Q105.57 12.71 104.80 13.18L104.80 13.18L104.80 13.18Q104.02 13.65 102.98 13.65L102.98 13.65ZM102.98 12.53L102.98 12.53Q103.99 12.53 104.55 11.89L104.55 11.89L104.55 11.89Q105.10 11.24 105.10 10.08L105.10 10.08L105.10 10.08Q105.10 8.92 104.55 8.27L104.55 8.27L104.55 8.27Q103.99 7.63 102.98 7.63L102.98 7.63L102.98 7.63Q101.98 7.63 101.42 8.27L101.42 8.27L101.42 8.27Q100.87 8.92 100.87 10.08L100.87 10.08L100.87 10.08Q100.87 11.24 101.42 11.89L101.42 11.89L101.42 11.89Q101.98 12.53 102.98 12.53L102.98 12.53ZM111.17 6.51L111.17 6.51Q112.08 6.51 112.76 6.98L112.76 6.98L112.76 6.98Q113.44 7.45 113.81 8.26L113.81 8.26L113.81 8.26Q114.17 9.07 114.17 10.08L114.17 10.08L114.17 10.08Q114.17 11.10 113.83 11.91L113.83 11.91L113.83 11.91Q113.48 12.71 112.81 13.18L112.81 13.18L112.81 13.18Q112.14 13.65 111.17 13.65L111.17 13.65L111.17 13.65Q110.46 13.65 109.87 13.40L109.87 13.40L109.87 13.40Q109.28 13.15 108.95 12.67L108.95 12.67L108.95 16.90L107.69 16.90L107.69 6.65L108.67 6.65L108.81 7.60L108.81 7.60Q109.68 6.51 111.17 6.51L111.17 6.51ZM110.94 12.53L110.94 12.53Q111.85 12.53 112.36 11.88L112.36 11.88L112.36 11.88Q112.88 11.23 112.88 10.08L112.88 10.08L112.88 10.08Q112.88 8.93 112.36 8.28L112.36 8.28L112.36 8.28Q111.85 7.63 110.94 7.63L110.94 7.63L110.94 7.63Q110.04 7.63 109.46 8.26L109.46 8.26L109.46 8.26Q108.88 8.89 108.88 10.08L108.88 10.08L108.88 10.08Q108.88 11.31 109.45 11.92L109.45 11.92L109.45 11.92Q110.03 12.53 110.94 12.53L110.94 12.53ZM118.78 13.65L118.78 13.65Q117.60 13.65 116.77 13.17L116.77 13.17L116.77 13.17Q115.93 12.68 115.50 11.86L115.50 11.86L115.50 11.86Q115.07 11.03 115.07 10.02L115.07 10.02L115.07 10.02Q115.07 9.06 115.47 8.25L115.47 8.25L115.47 8.25Q115.86 7.45 116.63 6.98L116.63 6.98L116.63 6.98Q117.39 6.51 118.43 6.51L118.43 6.51L118.43 6.51Q119.74 6.51 120.56 7.28L120.56 7.28L120.56 7.28Q121.38 8.05 121.38 9.41L121.38 9.41L121.38 9.41Q121.38 9.76 121.32 10.08L121.32 10.08L116.35 10.08L116.35 10.08Q116.48 11.41 117.17 11.97L117.17 11.97L117.17 11.97Q117.85 12.53 118.93 12.53L118.93 12.53L118.93 12.53Q120.01 12.53 120.90 12.12L120.90 12.12L121.07 13.12L121.07 13.12Q119.88 13.65 118.78 13.65L118.78 13.65ZM116.47 9.21L120.08 9.21L120.08 9.21Q120.08 8.47 119.66 8.05L119.66 8.05L119.66 8.05Q119.24 7.63 118.40 7.63L118.40 7.63L118.40 7.63Q117.59 7.63 117.12 8.03L117.12 8.03L117.12 8.03Q116.66 8.43 116.47 9.21L116.47 9.21ZM122.65 13.51L122.65 6.65L123.69 6.65L123.84 7.78L123.84 7.78Q124.38 7.13 124.86 6.82L124.86 6.82L124.86 6.82Q125.34 6.51 125.87 6.51L125.87 6.51L125.87 6.51Q126.04 6.51 126.20 6.55L126.20 6.55L126.07 7.94L126.07 7.94Q125.89 7.90 125.65 7.90L125.65 7.90L125.65 7.90Q125.13 7.90 124.67 8.13L124.67 8.13L124.67 8.13Q124.21 8.36 124.00 8.67L124.00 8.67L124.00 13.51L122.65 13.51Z"></path></g></svg>