<?xml version="1.0" encoding="utf-8"?><svg xmlns="http://www.w3.org/2000/svg" xmlns:xlink="http://www.w3.org/1999/xlink"  preserveAspectRatio="xMidYMid" viewBox="0 0 1600 900" style="z-index:1;margin-right:-2px;display:block;background-repeat-y:initial;background-repeat-x:initial;animation-play-state:paused" ><g transform="translate(800,450) scale(-1,-1) translate(-800,-450)" style="transform:matrix(-1, 0, 0, -1, 1600, 900);animation-play-state:paused" ><path id="path0" d="M 1036.1218167020959 266.1263846510206
c 0 20.89663427888648 -5.113006259727542 6.002224739680159 -11.115230999407702 6.002224739680159
S 1013.8913547032805 287.0230189299071 1013.8913547032805 266.1263846510206
s 5.113006259727542 -6.002224739680159 11.115230999407702 -6.002224739680159
S 1036.1218167020959 245.2297503721341 1036.1218167020959 266.1263846510206
z" fill="none" stroke="none" style="animation-play-state:paused" ></path>


<circle cx="0" cy="0" r="3.736335078161306" fill="#00a950" opacity="0.82" transform="translate(1030.114013671875 257.4197998046875)" style="opacity:0.82;animation-play-state:paused" ></circle>
<path id="path1" d="M 227.69317069102115 22.862061123067406
c 0 35.96918989084284 -8.800971994567927 10.331575819710178 -19.132547814278105 10.331575819710178
S 189.42807506246496 58.83125101391025 189.42807506246496 22.862061123067406
s 8.800971994567927 -10.331575819710178 19.132547814278105 -10.331575819710178
S 227.69317069102115 -13.107128767775436 227.69317069102115 22.862061123067406
z" fill="none" stroke="none" style="animation-play-state:paused" ></path>


<circle cx="0" cy="0" r="4.061782525686064" fill="#00a950" opacity="0.82" transform="translate(224.78843688964844 4.0065388679504395)" style="opacity:0.82;animation-play-state:paused" ></circle>
<path id="path2" d="M 965.0741714570993 380.5833926252811
c 0 26.72413105008731 -6.538883129276681 7.6760801952378435 -14.214963324514525 7.6760801952378435
S 936.6442448080702 407.3075236753684 936.6442448080702 380.5833926252811
s 6.538883129276681 -7.6760801952378435 14.214963324514525 -7.6760801952378435
S 965.0741714570993 353.8592615751938 965.0741714570993 380.5833926252811
z" fill="none" stroke="none" style="animation-play-state:paused" ></path>


<circle cx="0" cy="0" r="4.704826098549365" fill="#00a950" opacity="0.82" transform="translate(936.7791137695312 374.79083251953125)" style="opacity:0.82;animation-play-state:paused" ></circle>
<path id="path3" d="M 1016.7363320458498 11.072309307907908
c 0 19.380777648846387 -4.742105169398583 5.566819111902685 -10.308924281301268 5.566819111902685
S 996.1184834832472 30.453086956754294 996.1184834832472 11.072309307907908
s 4.742105169398583 -5.566819111902685 10.308924281301268 -5.566819111902685
S 1016.7363320458498 -8.308468340938479 1016.7363320458498 11.072309307907908
z" fill="none" stroke="none" style="animation-play-state:paused" ></path>


<circle cx="0" cy="0" r="5.214775352957438" fill="#fad000" opacity="0.82" transform="translate(996.4723510742188 4.088192462921143)" style="opacity:0.82;animation-play-state:paused" ></circle>
<path id="path4" d="M 78.57404743927599 371.0393345992663
c 0 30.536590818214517 -7.471719029988658 8.771148426508425 -16.242867456497084 8.771148426508425
S 46.088312526281825 401.5759254174808 46.088312526281825 371.0393345992663
s 7.471719029988658 -8.771148426508425 16.242867456497084 -8.771148426508425
S 78.57404743927599 340.5027437810518 78.57404743927599 371.0393345992663
z" fill="none" stroke="none" style="animation-play-state:paused" ></path>


<circle cx="0" cy="0" r="3.659460752260691" fill="#fad000" opacity="0.82" transform="translate(59.218528747558594 361.4449768066406)" style="opacity:0.82;animation-play-state:paused" ></circle>
<path id="path5" d="M 1230.5726990790859 862.5664472629297
c 0 18.842856868507457 -4.6104862550603345 5.412309951592567 -10.022796206652902 5.412309951592567
S 1210.5271066657801 881.4093041314372 1210.5271066657801 862.5664472629297
s 4.6104862550603345 -5.412309951592567 10.022796206652902 -5.412309951592567
S 1230.5726990790859 843.7235903944222 1230.5726990790859 862.5664472629297
z" fill="none" stroke="none" style="animation-play-state:paused" ></path>


<circle cx="0" cy="0" r="4.28270080556832" fill="#fad000" opacity="0.82" transform="translate(1230.15234375 869.839599609375)" style="opacity:0.82;animation-play-state:paused" ></circle>
<path id="path6" d="M 1548.8942867540713 646.6176550439556
c 0 33.81603948596968 -8.274137321035134 9.71311772469342 -17.987255045728553 9.71311772469342
S 1512.9197766626144 680.4336945299252 1512.9197766626144 646.6176550439556
s 8.274137321035134 -9.71311772469342 17.987255045728553 -9.71311772469342
S 1548.8942867540713 612.8016155579859 1548.8942867540713 646.6176550439556
z" fill="none" stroke="none" style="animation-play-state:paused" ></path>


<circle cx="0" cy="0" r="4.872227861276528" fill="#1a72b6" opacity="0.82" transform="translate(1548.2708740234375 634.3906860351562)" style="opacity:0.82;animation-play-state:paused" ></circle>
<path id="path7" d="M 929.9832210672326 481.11038899652874
c 0 34.79018128908738 -8.512491166478826 9.99292441282297 -18.505415579301797 9.99292441282297
S 892.972389908629 515.9005702856161 892.972389908629 481.11038899652874
s 8.512491166478826 -9.99292441282297 18.505415579301797 -9.99292441282297
S 929.9832210672326 446.32020770744134 929.9832210672326 481.11038899652874
z" fill="none" stroke="none" style="animation-play-state:paused" ></path>


<circle cx="0" cy="0" r="5.124157885830295" fill="#1a72b6" opacity="0.82" transform="translate(899.701416015625 498.3501892089844)" style="opacity:0.82;animation-play-state:paused" ></circle>
<path id="path8" d="M 1123.9384042734728 544.9757689945977
c 0 32.4803067377186 -7.947309095399231 9.329449807642577 -17.27675890304181 9.329449807642577
S 1089.3848864673892 577.4560757323163 1089.3848864673892 544.9757689945977
s 7.947309095399231 -9.329449807642577 17.27675890304181 -9.329449807642577
S 1123.9384042734728 512.4954622568791 1123.9384042734728 544.9757689945977
z" fill="none" stroke="none" style="animation-play-state:paused" ></path>


<circle cx="0" cy="0" r="3.4167043271939006" fill="#fad000" opacity="0.82" transform="translate(1089.9483642578125 533.4800415039062)" style="opacity:0.82;animation-play-state:paused" ></circle>
<path id="path9" d="M 706.9602763690328 598.7193022082295
c 0 35.815931984083704 -8.763472719509842 10.287554931598512 -19.051027651108356 10.287554931598512
S 668.8582210668161 634.5352341923132 668.8582210668161 598.7193022082295
s 8.763472719509842 -10.287554931598512 19.051027651108356 -10.287554931598512
S 706.9602763690328 562.9033702241458 706.9602763690328 598.7193022082295
z" fill="none" stroke="none" style="animation-play-state:paused" ></path>


<circle cx="0" cy="0" r="5.391913842546968" fill="#6bc048" opacity="0.82" transform="translate(695.3541259765625 612.5403442382812)" style="opacity:0.82;animation-play-state:paused" ></circle>
<path id="path10" d="M 384.95901967362533 387.2879974767597
c 0 35.42008956286484 -8.666617658998842 10.173855512737774 -18.840473171736615 10.173855512737774
S 347.2780733301521 422.70808703962456 347.2780733301521 387.2879974767597
s 8.666617658998842 -10.173855512737774 18.840473171736615 -10.173855512737774
S 384.95901967362533 351.86790791389484 384.95901967362533 387.2879974767597
z" fill="none" stroke="none" style="animation-play-state:paused" ></path>


<circle cx="0" cy="0" r="4.726707975313619" fill="#1a72b6" opacity="0.82" transform="translate(358.8174743652344 373.6698303222656)" style="opacity:0.82;animation-play-state:paused" ></circle>
<path id="path11" d="M 1122.015998645744 290.28992584083966
c 0 34.737161678935756 -8.499518283143853 9.977695375864526 -18.47721365900838 9.977695375864526
S 1085.0615713277273 325.0270875197754 1085.0615713277273 290.28992584083966
s 8.499518283143853 -9.977695375864526 18.47721365900838 -9.977695375864526
S 1122.015998645744 255.5527641619039 1122.015998645744 290.28992584083966
z" fill="none" stroke="none" style="animation-play-state:paused" ></path>


<circle cx="0" cy="0" r="4.391628814198861" fill="#fad000" opacity="0.82" transform="translate(1120.961669921875 305.06109619140625)" style="opacity:0.82;animation-play-state:paused" ></circle>
<path id="path12" d="M 66.52514923896659 379.8999817175149
c 0 25.396951657209907 -6.214147745913062 7.294869093028377 -13.509016838941438 7.294869093028377
S 39.50711556108372 405.2969333747248 39.50711556108372 379.8999817175149
s 6.214147745913062 -7.294869093028377 13.509016838941438 -7.294869093028377
S 66.52514923896659 354.503030060305 66.52514923896659 379.8999817175149
z" fill="none" stroke="none" style="animation-play-state:paused" ></path>


<circle cx="0" cy="0" r="5.233305648142943" fill="#00a950" opacity="0.82" transform="translate(43.405975341796875 366.6651306152344)" style="opacity:0.82;animation-play-state:paused" ></circle>
<path id="path13" d="M 1065.2185876557578 773.1149647848328
c 0 24.34315604228066 -5.956304138004842 6.992183118527424 -12.948487256532266 6.992183118527424
S 1039.3216131426934 797.4581208271134 1039.3216131426934 773.1149647848328
s 5.956304138004842 -6.992183118527424 12.948487256532266 -6.992183118527424
S 1065.2185876557578 748.7718087425521 1065.2185876557578 773.1149647848328
z" fill="none" stroke="none" style="animation-play-state:paused" ></path>


<circle cx="0" cy="0" r="3.927779953479737" fill="#1a72b6" opacity="0.82" transform="translate(1060.9005126953125 785.4544677734375)" style="opacity:0.82;animation-play-state:paused" ></circle>
<path id="path14" d="M 1143.1804976324638 885.5035773666092
c 0 23.986727433226616 -5.869092882598 6.889804688267219 -12.75889757086522 6.889804688267219
S 1117.6627024907334 909.4903047998358 1117.6627024907334 885.5035773666092
s 5.869092882598 -6.889804688267219 12.75889757086522 -6.889804688267219
S 1143.1804976324638 861.5168499333826 1143.1804976324638 885.5035773666092
z" fill="none" stroke="none" style="animation-play-state:paused" ></path>


<circle cx="0" cy="0" r="3.5080297006037857" fill="#1a72b6" opacity="0.82" transform="translate(1117.7213134765625 889.2781982421875)" style="opacity:0.82;animation-play-state:paused" ></circle>
<path id="path15" d="M 963.5447780659448 317.9089424100078
c 0 21.00851804765244 -5.140382075489426 6.034361566878893 -11.17474364236832 6.034361566878893
S 941.1952907812082 338.91746045766024 941.1952907812082 317.9089424100078
s 5.140382075489426 -6.034361566878893 11.17474364236832 -6.034361566878893
S 963.5447780659448 296.90042436235535 963.5447780659448 317.9089424100078
z" fill="none" stroke="none" style="animation-play-state:paused" ></path>


<circle cx="0" cy="0" r="3.196915832391433" fill="#1a72b6" opacity="0.82" transform="translate(947.505859375 326.4306945800781)" style="opacity:0.82;animation-play-state:paused" ></circle>
<path id="path16" d="M 1285.711785906909 397.6800709302685
c 0 31.6485986954539 -7.743806063781272 9.090554944438885 -16.834361008220156 9.090554944438885
S 1252.0430638904686 429.32866962572245 1252.0430638904686 397.6800709302685
s 7.743806063781272 -9.090554944438885 16.834361008220156 -9.090554944438885
S 1285.711785906909 366.0314722348146 1285.711785906909 397.6800709302685
z" fill="none" stroke="none" style="animation-play-state:paused" ></path>


<circle cx="0" cy="0" r="4.9261554383305866" fill="#fad000" opacity="0.82" transform="translate(1283.6864013671875 381.6092834472656)" style="opacity:0.82;animation-play-state:paused" ></circle>
<path id="path17" d="M 1233.171252335681 59.60420413496981
c 0 19.760390166705506 -4.834989083342836 5.675856750011156 -10.510845833353992 5.675856750011156
S 1212.1495606689728 79.36459430167531 1212.1495606689728 59.60420413496981
s 4.834989083342836 -5.675856750011156 10.510845833353992 -5.675856750011156
S 1233.171252335681 39.84381396826431 1233.171252335681 59.60420413496981
z" fill="none" stroke="none" style="animation-play-state:paused" ></path>


<circle cx="0" cy="0" r="4.625169589612424" fill="#6bc048" opacity="0.82" transform="translate(1233.170654296875 59.763736724853516)" style="opacity:0.82;animation-play-state:paused" ></circle>
<path id="path18" d="M 709.6572745768694 438.9161166917577
c 0 25.081099547240385 -6.136864782835413 7.204145614632877 -13.341010397468288 7.204145614632877
S 682.9752537819329 463.9972162389981 682.9752537819329 438.9161166917577
s 6.136864782835413 -7.204145614632877 13.341010397468288 -7.204145614632877
S 709.6572745768694 413.8350171445173 709.6572745768694 438.9161166917577
z" fill="none" stroke="none" style="animation-play-state:paused" ></path>


<circle cx="0" cy="0" r="4.809381790867591" fill="#00a950" opacity="0.82" transform="translate(683.5258178710938 429.2880554199219)" style="opacity:0.82;animation-play-state:paused" ></circle>
<path id="path19" d="M 609.2266021131328 157.9718483065974
c 0 30.13475298673906 -7.373397007393598 8.655726921722922 -16.02912392911652 8.655726921722922
S 577.1683542548998 188.10660129333644 577.1683542548998 157.9718483065974
s 7.373397007393598 -8.655726921722922 16.02912392911652 -8.655726921722922
S 609.2266021131328 127.83709531985834 609.2266021131328 157.9718483065974
z" fill="none" stroke="none" style="animation-play-state:paused" ></path>


<circle cx="0" cy="0" r="4.79108661798763" fill="#00a950" opacity="0.82" transform="translate(595.0089111328125 149.02076721191406)" style="opacity:0.82;animation-play-state:paused" ></circle>
<path id="path20" d="M 629.2708368394428 185.59201934097177
c 0 33.88317796294811 -8.290564820721345 9.7324021808468 -18.022967001568144 9.7324021808468
S 593.2249028363065 219.47519730391988 593.2249028363065 185.59201934097177
s 8.290564820721345 -9.7324021808468 18.022967001568144 -9.7324021808468
S 629.2708368394428 151.70884137802366 629.2708368394428 185.59201934097177
z" fill="none" stroke="none" style="animation-play-state:paused" ></path>


<circle cx="0" cy="0" r="3.7900454258645957" fill="#00a950" opacity="0.82" transform="translate(629.2323608398438 189.34063720703125)" style="opacity:0.82;animation-play-state:paused" ></circle>
<path id="path21" d="M 1049.5477056462257 857.4479941222422
c 0 27.34917930806934 -6.691820468995688 7.855615333168853 -14.547435802164541 7.855615333168853
S 1020.4528340418967 884.7971734303115 1020.4528340418967 857.4479941222422
s 6.691820468995688 -7.855615333168853 14.547435802164541 -7.855615333168853
S 1049.5477056462257 830.0988148141729 1049.5477056462257 857.4479941222422
z" fill="none" stroke="none" style="animation-play-state:paused" ></path>


<circle cx="0" cy="0" r="4.526928922583591" fill="#1a72b6" opacity="0.82" transform="translate(1044.9384765625 843.428955078125)" style="opacity:0.82;animation-play-state:paused" ></circle>
<path id="path22" d="M 749.7272639859859 112.35193465336066
c 0 29.369820848508056 -7.1862327608051615 8.436012371379974 -15.622245132185135 8.436012371379974
S 718.4827737216156 141.7217555018687 718.4827737216156 112.35193465336066
s 7.1862327608051615 -8.436012371379974 15.622245132185135 -8.436012371379974
S 749.7272639859859 82.9821138048526 749.7272639859859 112.35193465336066
z" fill="none" stroke="none" style="animation-play-state:paused" ></path>


<circle cx="0" cy="0" r="3.486537205631362" fill="#fad000" opacity="0.82" transform="translate(718.5565795898438 117.0287094116211)" style="opacity:0.82;animation-play-state:paused" ></circle>
<path id="path23" d="M 243.443007529108 349.12621101020085
c 0 24.898260443712246 -6.0921275553764 7.151627999789688 -13.243755555166087 7.151627999789688
S 216.95549641877585 374.02447145391307 216.95549641877585 349.12621101020085
s 6.0921275553764 -7.151627999789688 13.243755555166087 -7.151627999789688
S 243.443007529108 324.22795056648863 243.443007529108 349.12621101020085
z" fill="none" stroke="none" style="animation-play-state:paused" ></path>


<circle cx="0" cy="0" r="3.765578346292066" fill="#1a72b6" opacity="0.82" transform="translate(243.4274139404297 351.19427490234375)" style="opacity:0.82;animation-play-state:paused" ></circle>
<path id="path24" d="M 43.90748178361247 178.95809426909756
c 0 32.02749302554125 -7.836514250930305 9.19938629457036 -17.035900545500663 9.19938629457036
S 9.835680692611145 210.9855872946388 9.835680692611145 178.95809426909756
s 7.836514250930305 -9.19938629457036 17.035900545500663 -9.19938629457036
S 43.90748178361247 146.9306012435563 43.90748178361247 178.95809426909756
z" fill="none" stroke="none" style="animation-play-state:paused" ></path>


<circle cx="0" cy="0" r="4.987480724434862" fill="#1a72b6" opacity="0.82" transform="translate(24.87914276123047 169.42327880859375)" style="opacity:0.82;animation-play-state:paused" ></circle>
<path id="path25" d="M 189.44908255250988 275.7794000568226
c 0 21.76582835268453 -5.325681405444087 6.251886867260451 -11.577568272704537 6.251886867260451
S 166.29394600710083 297.54522840950716 166.29394600710083 275.7794000568226
s 5.325681405444087 -6.251886867260451 11.577568272704537 -6.251886867260451
S 189.44908255250988 254.0135717041381 189.44908255250988 275.7794000568226
z" fill="none" stroke="none" style="animation-play-state:paused" ></path>


<circle cx="0" cy="0" r="3.2387101029550793" fill="#fad000" opacity="0.82" transform="translate(189.38951110839844 272.17303466796875)" style="opacity:0.82;animation-play-state:paused" ></circle>
<path id="path26" d="M 232.0257744760533 475.12804626590037
c 0 22.333626172697322 -5.464610659277004 6.414977730455615 -11.879588389732618 6.414977730455615
S 208.26659769658806 497.4616724385977 208.26659769658806 475.12804626590037
s 5.464610659277004 -6.414977730455615 11.879588389732618 -6.414977730455615
S 232.0257744760533 452.79442009320303 232.0257744760533 475.12804626590037
z" fill="none" stroke="none" style="animation-play-state:paused" ></path>


<circle cx="0" cy="0" r="2.8964828898681243" fill="#00a950" opacity="0.82" transform="translate(208.85972595214844 484.24676513671875)" style="opacity:0.82;animation-play-state:paused" ></circle>
<path id="path27" d="M 676.3926684558755 713.5031408532002
c 0 19.714936073188383 -4.823867337056732 5.662800786979642 -10.486668124036374 5.662800786979642
S 655.4193322078029 733.2180769263886 655.4193322078029 713.5031408532002
s 4.823867337056732 -5.662800786979642 10.486668124036374 -5.662800786979642
S 676.3926684558755 693.7882047800118 676.3926684558755 713.5031408532002
z" fill="none" stroke="none" style="animation-play-state:paused" ></path>


<circle cx="0" cy="0" r="2.786015694498704" fill="#6bc048" opacity="0.82" transform="translate(655.478759765625 716.9124145507812)" style="opacity:0.82;animation-play-state:paused" ></circle>
<path id="path28" d="M 1147.6721639113878 846.7678187722831
c 0 32.80131269108778 -8.025853105266158 9.421653645312448 -17.447506750578608 9.421653645312448
S 1112.7771504102304 879.5691314633709 1112.7771504102304 846.7678187722831
s 8.025853105266158 -9.421653645312448 17.447506750578608 -9.421653645312448
S 1147.6721639113878 813.9665060811953 1147.6721639113878 846.7678187722831
z" fill="none" stroke="none" style="animation-play-state:paused" ></path>


<circle cx="0" cy="0" r="4.517386237693547" fill="#00a950" opacity="0.82" transform="translate(1116.0357666015625 829.3084106445312)" style="opacity:0.82;animation-play-state:paused" ></circle>
<path id="path29" d="M 1503.1410849600516 286.43540359660454
c 0 36.1528216841882 -8.845903178046047 10.384321122054057 -19.230224300100105 10.384321122054057
S 1464.6806363598512 322.58822528079276 1464.6806363598512 286.43540359660454
s 8.845903178046047 -10.384321122054057 19.230224300100105 -10.384321122054057
S 1503.1410849600516 250.28258191241633 1503.1410849600516 286.43540359660454
z" fill="none" stroke="none" style="animation-play-state:paused" ></path>


<circle cx="0" cy="0" r="5.39700088013024" fill="#00a950" opacity="0.82" transform="translate(1502.0089111328125 270.91912841796875)" style="opacity:0.82;animation-play-state:paused" ></circle>
<path id="path30" d="M 922.9468164923044 107.36073128251569
c 0 36.44163520904601 -8.916570317107 10.467278198343003 -19.383848515450005 10.467278198343003
S 884.1791194614043 143.8023664915617 884.1791194614043 107.36073128251569
s 8.916570317107 -10.467278198343003 19.383848515450005 -10.467278198343003
S 922.9468164923044 70.91909607346967 922.9468164923044 107.36073128251569
z" fill="none" stroke="none" style="animation-play-state:paused" ></path>


<circle cx="0" cy="0" r="5.250869746805289" fill="#6bc048" opacity="0.82" transform="translate(913.8197631835938 91.00629425048828)" style="opacity:0.82;animation-play-state:paused" ></circle>
<path id="path31" d="M 610.7787571949827 21.477647623007655
c 0 34.440495421483476 -8.426929730788508 9.892482727447382 -18.31941245823589 9.892482727447382
S 574.139932278511 55.91814304449113 574.139932278511 21.477647623007655
s 8.426929730788508 -9.892482727447382 18.31941245823589 -9.892482727447382
S 610.7787571949827 -12.96284779847582 610.7787571949827 21.477647623007655
z" fill="none" stroke="none" style="animation-play-state:paused" ></path>


<circle cx="0" cy="0" r="3.456205477677648" fill="#fad000" opacity="0.82" transform="translate(610.718505859375 16.830961227416992)" style="opacity:0.82;animation-play-state:paused" ></circle>
<path id="path32" d="M 627.0003864947149 235.21675312531812
c 0 19.266908723443727 -4.7142436238213365 5.534112080138092 -10.24835570395943 5.534112080138092
S 606.5036750867961 254.48366184876184 606.5036750867961 235.21675312531812
s 4.7142436238213365 -5.534112080138092 10.24835570395943 -5.534112080138092
S 627.0003864947149 215.9498444018744 627.0003864947149 235.21675312531812
z" fill="none" stroke="none" style="animation-play-state:paused" ></path>


<circle cx="0" cy="0" r="4.88733824466432" fill="#1a72b6" opacity="0.82" transform="translate(625.1044311523438 224.96543884277344)" style="opacity:0.82;animation-play-state:paused" ></circle>
<path id="path33" d="M 1222.630650742097 537.1110125970114
c 0 22.675954626212924 -5.5483718766265655 6.513306116039883 -12.061677992666448 6.513306116039883
S 1198.507294756764 559.7869672232243 1198.507294756764 537.1110125970114
s 5.5483718766265655 -6.513306116039883 12.061677992666448 -6.513306116039883
S 1222.630650742097 514.4350579707984 1222.630650742097 537.1110125970114
z" fill="none" stroke="none" style="animation-play-state:paused" ></path>


<circle cx="0" cy="0" r="4.2782622302723485" fill="#fad000" opacity="0.82" transform="translate(1215.188232421875 545.7848510742188)" style="opacity:0.82;animation-play-state:paused" ></circle>
<path id="path34" d="M 563.1955844005171 124.25130164785529
c 0 26.288921249991123 -6.432395624997827 7.55107312499745 -13.983468749995279 7.55107312499745
S 535.2286469005265 150.5402228978464 535.2286469005265 124.25130164785529
s 6.432395624997827 -7.55107312499745 13.983468749995279 -7.55107312499745
S 563.1955844005171 97.96238039786417 563.1955844005171 124.25130164785529
z" fill="none" stroke="none" style="animation-play-state:paused" ></path>


<circle cx="0" cy="0" r="3.47969824735292" fill="#00a950" opacity="0.82" transform="translate(563.1807861328125 122.18473815917969)" style="opacity:0.82;animation-play-state:paused" ></circle>
<path id="path35" d="M 1324.9859496915044 435.27475183789926
c 0 22.09368867304544 -5.4059025476600535 6.346059512470498 -11.751962060130552 6.346059512470498
S 1301.4820255712432 457.3684405109447 1301.4820255712432 435.27475183789926
s 5.4059025476600535 -6.346059512470498 11.751962060130552 -6.346059512470498
S 1324.9859496915044 413.1810631648538 1324.9859496915044 435.27475183789926
z" fill="none" stroke="none" style="animation-play-state:paused" ></path>


<circle cx="0" cy="0" r="3.2716019198873485" fill="#00a950" opacity="0.82" transform="translate(1321.3707275390625 446.66510009765625)" style="opacity:0.82;animation-play-state:paused" ></circle>
<path id="path36" d="M 1403.0760158434066 425.52530531016924
c 0 36.883301899973794 -9.024637698929757 10.594139907439281 -19.618777606369036 10.594139907439281
S 1363.8384606306684 462.40860721014303 1363.8384606306684 425.52530531016924
s 9.024637698929757 -10.594139907439281 19.618777606369036 -10.594139907439281
S 1403.0760158434066 388.64200341019546 1403.0760158434066 425.52530531016924
z" fill="none" stroke="none" style="animation-play-state:paused" ></path>


<circle cx="0" cy="0" r="4.037903669847649" fill="#1a72b6" opacity="0.82" transform="translate(1372.1822509765625 408.2103576660156)" style="opacity:0.82;animation-play-state:paused" ></circle>
<path id="path37" d="M 407.9373036828628 354.1185718333379
c 0 34.987418192057355 -8.560751259758714 10.049577565803707 -18.61032882556242 10.049577565803707
S 370.716646031738 389.1059900253953 370.716646031738 354.1185718333379
s 8.560751259758714 -10.049577565803707 18.61032882556242 -10.049577565803707
S 407.9373036828628 319.13115364128055 407.9373036828628 354.1185718333379
z" fill="none" stroke="none" style="animation-play-state:paused" ></path>


<circle cx="0" cy="0" r="4.293324444092276" fill="#00a950" opacity="0.82" transform="translate(394.7586975097656 342.01019287109375)" style="opacity:0.82;animation-play-state:paused" ></circle>
<path id="path38" d="M 1568.1075869888446 503.08797834238754
c 0 21.73637054289458 -5.3184736434742055 6.243425581469721 -11.561899224943925 6.243425581469721
S 1544.9837885389566 524.8243488852821 1544.9837885389566 503.08797834238754
s 5.3184736434742055 -6.243425581469721 11.561899224943925 -6.243425581469721
S 1568.1075869888446 481.35160779949297 1568.1075869888446 503.08797834238754
z" fill="none" stroke="none" style="animation-play-state:paused" ></path>


<circle cx="0" cy="0" r="4.441127425665028" fill="#1a72b6" opacity="0.82" transform="translate(1567.873291015625 509.5253601074219)" style="opacity:0.82;animation-play-state:paused" ></circle>
<path id="path39" d="M 56.294335716368266 238.05957169306544
c 0 35.40151800256688 -8.662073553819555 10.16852112839687 -18.830594682216425 10.16852112839687
S 18.633146351935412 273.4610896956323 18.633146351935412 238.05957169306544
s 8.662073553819555 -10.16852112839687 18.830594682216425 -10.16852112839687
S 56.294335716368266 202.65805369049855 56.294335716368266 238.05957169306544
z" fill="none" stroke="none" style="animation-play-state:paused" ></path>


<circle cx="0" cy="0" r="2.910262794061241" fill="#fad000" opacity="0.82" transform="translate(31.963926315307617 225.80532836914062)" style="opacity:0.82;animation-play-state:paused" ></circle>
<path id="path40" d="M 470.3171200638144 337.4019855542309
c 0 24.643510065314224 -6.029795015981139 7.07845501876047 -13.108250034741609 7.07845501876047
S 444.10061999433117 362.04549561954514 444.10061999433117 337.4019855542309
s 6.029795015981139 -7.07845501876047 13.108250034741609 -7.07845501876047
S 470.3171200638144 312.7584754889167 470.3171200638144 337.4019855542309
z" fill="none" stroke="none" style="animation-play-state:paused" ></path>


<circle cx="0" cy="0" r="3.6512797489371756" fill="#00a950" opacity="0.82" transform="translate(459.7412414550781 345.155029296875)" style="opacity:0.82;animation-play-state:paused" ></circle>
<path id="path41" d="M 41.20002661135547 626.279871036414
c 0 31.9066192239239 -7.806938746279251 9.164667223893035 -16.971605970172288 9.164667223893035
S 7.25681467101089 658.1864902603379 7.25681467101089 626.279871036414
s 7.806938746279251 -9.164667223893035 16.971605970172288 -9.164667223893035
S 41.20002661135547 594.37325181249 41.20002661135547 626.279871036414
z" fill="none" stroke="none" style="animation-play-state:paused" ></path>


<circle cx="0" cy="0" r="3.9235031048857727" fill="#1a72b6" opacity="0.82" transform="translate(19.631845474243164 637.0828247070312)" style="opacity:0.82;animation-play-state:paused" ></circle>
<path id="path42" d="M 1373.2169853326034 672.837504152592
c 0 36.899824056693696 -9.028680354297393 10.598885633305636 -19.62756598760303 10.598885633305636
S 1333.9618533573973 709.7373282092857 1333.9618533573973 672.837504152592
s 9.028680354297393 -10.598885633305636 19.62756598760303 -10.598885633305636
S 1373.2169853326034 635.9376800958984 1373.2169853326034 672.837504152592
z" fill="none" stroke="none" style="animation-play-state:paused" ></path>


<circle cx="0" cy="0" r="4.4413166185662" fill="#00a950" opacity="0.82" transform="translate(1367.9544677734375 692.2534790039062)" style="opacity:0.82;animation-play-state:paused" ></circle>
<path id="path43" d="M 671.6201156142231 666.2091195528992
c 0 31.74440551738171 -7.76724815850829 9.118073925205385 -16.885322083713675 9.118073925205385
S 637.8494714467956 697.9535250702809 637.8494714467956 666.2091195528992
s 7.76724815850829 -9.118073925205385 16.885322083713675 -9.118073925205385
S 671.6201156142231 634.4647140355175 671.6201156142231 666.2091195528992
z" fill="none" stroke="none" style="animation-play-state:paused" ></path>


<circle cx="0" cy="0" r="4.094505644370133" fill="#fad000" opacity="0.82" transform="translate(642.5176391601562 649.5670166015625)" style="opacity:0.82;animation-play-state:paused" ></circle>
<path id="path44" d="M 1536.3482597926925 216.06566546628102
c 0 22.160615604477204 -5.422278286201868 6.365283205541324 -11.787561491743192 6.365283205541324
S 1512.773136809206 238.22628107075823 1512.773136809206 216.06566546628102
s 5.422278286201868 -6.365283205541324 11.787561491743192 -6.365283205541324
S 1536.3482597926925 193.9050498618038 1536.3482597926925 216.06566546628102
z" fill="none" stroke="none" style="animation-play-state:paused" ></path>


<circle cx="0" cy="0" r="4.646800862507612" fill="#1a72b6" opacity="0.82" transform="translate(1512.7904052734375 218.10586547851562)" style="opacity:0.82;animation-play-state:paused" ></circle>
<path id="path45" d="M 754.5588609218282 266.13133576401793
c 0 21.660803838514237 -5.299983917934334 6.221720251488132 -11.521704169422467 6.221720251488132
S 731.5154525829832 287.7921396025322 731.5154525829832 266.13133576401793
s 5.299983917934334 -6.221720251488132 11.521704169422467 -6.221720251488132
S 754.5588609218282 244.4705319255037 754.5588609218282 266.13133576401793
z" fill="none" stroke="none" style="animation-play-state:paused" ></path>


<circle cx="0" cy="0" r="4.273218356753958" fill="#fad000" opacity="0.82" transform="translate(752.9130249023438 277.4072570800781)" style="opacity:0.82;animation-play-state:paused" ></circle>
<path id="path46" d="M 25.836730251365072 239.3619043426981
c 0 27.627585960495374 -6.759941245653122 7.935583201418884 -14.695524447072007 7.935583201418884
S -3.5543186427789415 266.98949030319346 -3.5543186427789415 239.3619043426981
s 6.759941245653122 -7.935583201418884 14.695524447072007 -7.935583201418884
S 25.836730251365072 211.73431838220273 25.836730251365072 239.3619043426981
z" fill="none" stroke="none" style="animation-play-state:paused" ></path>


<circle cx="0" cy="0" r="3.2393261078097213" fill="#fad000" opacity="0.82" transform="translate(25.382099151611328 229.7651824951172)" style="opacity:0.82;animation-play-state:paused" ></circle>
<path id="path47" d="M 485.9275814638442 650.4280418451079
c 0 31.900811165649632 -7.805517625637675 9.162998951835533 -16.968516577473206 9.162998951835533
S 451.99054830889776 682.3288530107576 451.99054830889776 650.4280418451079
s 7.805517625637675 -9.162998951835533 16.968516577473206 -9.162998951835533
S 485.9275814638442 618.5272306794583 485.9275814638442 650.4280418451079
z" fill="none" stroke="none" style="animation-play-state:paused" ></path>


<circle cx="0" cy="0" r="4.882257764545603" fill="#fad000" opacity="0.82" transform="translate(475.72906494140625 662.8519287109375)" style="opacity:0.82;animation-play-state:paused" ></circle>
<path id="path48" d="M 223.8920802397981 565.2660643694378
c 0 33.1511525086544 -8.111452209564375 9.52213955035818 -17.633591759922552 9.52213955035818
S 188.624896719953 598.4172168780922 188.624896719953 565.2660643694378
s 8.111452209564375 -9.52213955035818 17.633591759922552 -9.52213955035818
S 223.8920802397981 532.1149118607834 223.8920802397981 565.2660643694378
z" fill="none" stroke="none" style="animation-play-state:paused" ></path>


<circle cx="0" cy="0" r="5.325969785807397" fill="#6bc048" opacity="0.82" transform="translate(205.9320526123047 555.7347412109375)" style="opacity:0.82;animation-play-state:paused" ></circle>
<path id="path49" d="M 1039.6956894756763 577.2210116313082
c 0 19.8051944163382 -4.8459518252742395 5.6887260557567165 -10.534677881030955 5.6887260557567165
S 1018.6263337136144 597.0262060476464 1018.6263337136144 577.2210116313082
s 4.8459518252742395 -5.6887260557567165 10.534677881030955 -5.6887260557567165
S 1039.6956894756763 557.41581721497 1039.6956894756763 577.2210116313082
z" fill="none" stroke="none" style="animation-play-state:paused" ></path>


<circle cx="0" cy="0" r="5.1260135046805875" fill="#fad000" opacity="0.82" transform="translate(1027.13037109375 570.9921875)" style="opacity:0.82;animation-play-state:paused" ></circle></g></svg>